ffmpeg started on 2016-11-26 at 20:04:09
Report written to "Output/NVENCh264/results/ffmpeg/old_town_cross_2160p50ll11000k.log"
Command line:
Tools/ffmpeg/ffmpeg -benchmark -y -i Input/y4m/old_town_cross_2160p50.y4m -c:v h264_nvenc -preset ll -b:v 11000k -an Output/NVENCh264/encoded/old_town_cross_2160p50ll11000k.mkv
ffmpeg version N-82227-gdb23fde Copyright (c) 2000-2016 the FFmpeg developers
  built with gcc 5.4.0 (Ubuntu 5.4.0-6ubuntu1~16.04.2) 20160609
  configuration: --prefix=/home/jaroslav/ffmpeg_build --pkg-config-flags=--static --extra-cflags=-I/home/jaroslav/ffmpeg_build/include --extra-ldflags=-L/home/jaroslav/ffmpeg_build/lib --bindir=/home/jaroslav/bin --enable-gpl --enable-libass --enable-libfdk-aac --enable-libfreetype --enable-libmp3lame --enable-libopus --enable-libtheora --enable-libvorbis --enable-libvpx --enable-libx264 --enable-libx265 --enable-nvenc --enable-libmfx --enable-libxvid --enable-libgsm --enable-libopencore-amrnb --enable-version3 --enable-nonfree
  libavutil      55. 35.100 / 55. 35.100
  libavcodec     57. 66.101 / 57. 66.101
  libavformat    57. 57.100 / 57. 57.100
  libavdevice    57.  2.100 / 57.  2.100
  libavfilter     6. 66.100 /  6. 66.100
  libswscale      4.  3.100 /  4.  3.100
  libswresample   2.  4.100 /  2.  4.100
  libpostproc    54.  2.100 / 54.  2.100
Input #0, yuv4mpegpipe, from 'Input/y4m/old_town_cross_2160p50.y4m':
  Duration: 00:00:10.00, start: 0.000000, bitrate: 4976642 kb/s
    Stream #0:0: Video: rawvideo (I420 / 0x30323449), yuv420p(progressive), 3840x2160, SAR 1:1 DAR 16:9, 50 fps, 50 tbr, 50 tbn, 50 tbc
[h264_nvenc @ 0x2d1d120] The variable bitrate rate-control requires the 'qmin' and/or 'qmax' option set.
Output #0, matroska, to 'Output/NVENCh264/encoded/old_town_cross_2160p50ll11000k.mkv':
  Metadata:
    encoder         : Lavf57.57.100
    Stream #0:0: Video: h264 (h264_nvenc) (Main) (H264 / 0x34363248), yuv420p, 3840x2160 [SAR 1:1 DAR 16:9], q=-1--1, 11000 kb/s, 50 fps, 1k tbn, 50 tbc
    Metadata:
      encoder         : Lavc57.66.101 h264_nvenc
    Side data:
      cpb: bitrate max/min/avg: 0/0/11000000 buffer size: 22000000 vbv_delay: -1
Stream mapping:
  Stream #0:0 -> #0:0 (rawvideo (native) -> h264 (h264_nvenc))
Press [q] to stop, [?] for help
frame=   19 fps=0.0 q=0.0 size=       0kB time=00:00:00.00 bitrate=N/A speed=   0x    frame=   36 fps= 28 q=37.0 size=       1kB time=00:00:00.10 bitrate=  59.2kbits/s speed=0.078x    frame=   54 fps= 30 q=32.0 size=       1kB time=00:00:00.46 bitrate=  13.0kbits/s speed=0.254x    frame=   64 fps= 27 q=33.0 size=       1kB time=00:00:00.66 bitrate=   9.1kbits/s speed=0.278x    frame=   72 fps= 25 q=34.0 size=       1kB time=00:00:00.82 bitrate=   7.3kbits/s speed=0.285x    frame=   90 fps= 27 q=33.0 size=       1kB time=00:00:01.18 bitrate=   5.1kbits/s speed=0.348x    frame=  108 fps= 28 q=33.0 size=       1kB time=00:00:01.54 bitrate=   3.9kbits/s speed=0.394x    frame=  126 fps= 28 q=33.0 size=       1kB time=00:00:01.90 bitrate=   3.1kbits/s speed=0.43x    frame=  144 fps= 29 q=33.0 size=       1kB time=00:00:02.26 bitrate=   2.6kbits/s speed=0.458x    frame=  162 fps= 30 q=33.0 size=       1kB time=00:00:02.62 bitrate=   2.3kbits/s speed=0.481x    frame=  180 fps= 30 q=34.0 size=       1kB time=00:00:02.98 bitrate=   2.0kbits/s speed= 0.5x    frame=  198 fps= 31 q=33.0 size=       1kB time=00:00:03.34 bitrate=   1.8kbits/s speed=0.516x    frame=  216 fps= 31 q=34.0 size=       1kB time=00:00:03.70 bitrate=   1.6kbits/s speed=0.53x    frame=  233 fps= 31 q=34.0 size=    5137kB time=00:00:04.04 bitrate=10413.5kbits/s speed=0.54x    frame=  250 fps= 30 q=34.0 size=    5137kB time=00:00:04.38 bitrate=9605.3kbits/s speed=0.531x    frame=  264 fps= 30 q=34.0 size=    5137kB time=00:00:04.66 bitrate=9028.3kbits/s speed=0.521x    frame=  271 fps= 29 q=33.0 size=    5137kB time=00:00:04.80 bitrate=8765.1kbits/s speed=0.506x    frame=  289 fps= 29 q=35.0 size=    6612kB time=00:00:05.16 bitrate=10494.8kbits/s speed=0.515x    frame=  307 fps= 29 q=36.0 size=    6612kB time=00:00:05.52 bitrate=9810.5kbits/s speed=0.524x    frame=  325 fps= 29 q=35.0 size=    6612kB time=00:00:05.88 bitrate=9210.0kbits/s speed=0.533x    frame=  343 fps= 30 q=33.0 size=    6612kB time=00:00:06.24 bitrate=8678.7kbits/s speed=0.54x    frame=  361 fps= 30 q=34.0 size=    6612kB time=00:00:06.60 bitrate=8205.4kbits/s speed=0.547x    frame=  379 fps= 30 q=32.0 size=    6612kB time=00:00:06.96 bitrate=7781.0kbits/s speed=0.553x    frame=  397 fps= 30 q=32.0 size=    6612kB time=00:00:07.32 bitrate=7398.4kbits/s speed=0.559x    frame=  404 fps= 30 q=34.0 size=    6612kB time=00:00:07.46 bitrate=7259.6kbits/s speed=0.548x    frame=  416 fps= 29 q=31.0 size=    6612kB time=00:00:07.70 bitrate=7033.3kbits/s speed=0.539x    frame=  434 fps= 29 q=33.0 size=    6612kB time=00:00:08.06 bitrate=6719.2kbits/s speed=0.544x    frame=  450 fps= 29 q=33.0 size=    6612kB time=00:00:08.38 bitrate=6462.7kbits/s speed=0.543x    frame=  459 fps= 28 q=33.0 size=    6612kB time=00:00:08.56 bitrate=6326.8kbits/s speed=0.529x    frame=  465 fps= 28 q=32.0 size=    6612kB time=00:00:08.68 bitrate=6239.3kbits/s speed=0.519x    frame=  482 fps= 28 q=33.0 size=   11741kB time=00:00:09.02 bitrate=10662.1kbits/s speed=0.524x    frame=  500 fps= 28 q=33.0 size=   11741kB time=00:00:09.38 bitrate=10252.9kbits/s speed=0.529x    frame=  500 fps= 28 q=33.0 Lsize=   13210kB time=00:00:09.98 bitrate=10842.6kbits/s speed=0.561x    
video:13206kB audio:0kB subtitle:0kB other streams:0kB global headers:0kB muxing overhead: 0.034808%
bench: utime=1.120s
bench: maxrss=1408756kB
